<svg xmlns="http://www.w3.org/2000/svg" width="1200" height="760" viewBox="0 0 1200 760" role="img" aria-labelledby="title desc">
  <title id="title">gig branded front door</title>
  <desc id="desc">Terminal-style preview of the gig front door with a focused current-repository summary and command palette.</desc>
  <rect width="1200" height="760" rx="20" fill="#111215"/>
  <rect x="20" y="20" width="1160" height="60" rx="14" fill="#191b20"/>
  <circle cx="54" cy="50" r="8" fill="#ff5f57"/>
  <circle cx="82" cy="50" r="8" fill="#febc2e"/>
  <circle cx="110" cy="50" r="8" fill="#28c840"/>
  <text x="148" y="57" fill="#9097a4" font-family="Menlo, Monaco, Consolas, monospace" font-size="24">gig</text>

  <g font-family="Menlo, Monaco, Consolas, monospace" font-size="23">
    <rect x="34" y="112" width="650" height="330" rx="12" fill="none" stroke="#cbd5e1" stroke-width="2" opacity="0.85"/>
    <text x="58" y="154" fill="#f8fafc">&gt;_ gig  (v2026.04.14)</text>
    <text x="58" y="196" fill="#39d0ff">ticket-aware release audit</text>
    <text x="58" y="228" fill="#a5adba">docs   https://phamhungptithcm.github.io/gig</text>
    <text x="58" y="276" fill="#a5adba">source  Git repository</text>
    <text x="58" y="308" fill="#a5adba">path    payments</text>
    <text x="58" y="356" fill="#7d8591">branch</text>
    <text x="88" y="392" fill="#f8fafc">release/2026.04.20</text>
    <text x="58" y="424" fill="#39d0ff">next    gig ABC-123</text>

    <text x="34" y="512" fill="#f8fafc">Suggested next</text>
    <text x="62" y="548" fill="#39d0ff">gig ABC-123</text>
    <text x="62" y="580" fill="#39d0ff">gig verify ABC-123 --path . --from release/2026.04.20 --to main</text>
    <text x="62" y="612" fill="#39d0ff">gig packet ABC-123 --path . --from release/2026.04.20 --to main</text>
    <text x="62" y="652" fill="#7d8591">local git repository detected</text>

    <text x="720" y="154" fill="#f8fafc">Try one line</text>
    <rect x="720" y="176" width="392" height="56" rx="10" fill="none" stroke="#cbd5e1" stroke-width="2" opacity="0.85"/>
    <text x="744" y="212" fill="#39d0ff">ask gig &gt; local ABC-123</text>
    <text x="748" y="268" fill="#7d8591">try  local ABC-123</text>
    <text x="748" y="298" fill="#7d8591">try  workarea add local --path .</text>
    <text x="748" y="328" fill="#7d8591">try  manifest ABC-123</text>
  </g>
</svg>
