<svg xmlns="http://www.w3.org/2000/svg" width="1440" height="900" viewBox="0 0 1440 900" role="img" aria-labelledby="title desc">
  <title id="title">gig verify demo</title>
  <desc id="desc">Annotated terminal preview of gig verify for one ticket.</desc>
  <rect width="1440" height="900" rx="24" fill="#0b1220"/>
  <rect x="28" y="24" width="1384" height="62" rx="14" fill="#111827"/>
  <circle cx="62" cy="55" r="8" fill="#ef4444"/>
  <circle cx="90" cy="55" r="8" fill="#f59e0b"/>
  <circle cx="118" cy="55" r="8" fill="#22c55e"/>
  <text x="160" y="62" fill="#94a3b8" font-family="Menlo, Monaco, Consolas, monospace" font-size="24">gig verify --ticket ABC-123 --repo github:acme/payments</text>

  <g font-family="Menlo, Monaco, Consolas, monospace" font-size="22">
    <text x="56" y="128" fill="#22c55e">$</text>
    <text x="86" y="128" fill="#f8fafc">gig verify --ticket ABC-123 --repo github:acme/payments</text>

    <text x="56" y="180" fill="#f8fafc">Ticket ABC-123</text>
    <text x="56" y="214" fill="#cbd5e1">Verification: staging -&gt; main</text>
    <text x="56" y="248" fill="#cbd5e1">Environments: dev=dev -&gt; test=staging -&gt; prod=main</text>
    <text x="56" y="282" fill="#f87171">Verdict: blocked</text>
    <text x="56" y="316" fill="#cbd5e1">Scanned repositories: 1</text>
    <text x="56" y="350" fill="#cbd5e1">Touched repositories: 1</text>

    <text x="56" y="416" fill="#f8fafc">Why</text>
    <text x="56" y="450" fill="#fbbf24">  - At least one repository is missing the correct source or target release evidence.</text>
    <text x="56" y="484" fill="#fbbf24">  - 1 ticket commit(s) are still planned for promotion.</text>
    <text x="56" y="518" fill="#fbbf24">  - 1 manual review step(s) were inferred from the changed files.</text>
    <text x="56" y="552" fill="#fbbf24">  - 1 dependency ticket(s) are still missing from main.</text>

    <text x="56" y="618" fill="#f8fafc">[payments-api] github:acme/payments (github)</text>
    <text x="56" y="652" fill="#f87171">  verdict: blocked</text>
    <text x="56" y="686" fill="#f8fafc">  checks:</text>
    <text x="56" y="720" fill="#cbd5e1">    - staging contains 1 ticket commit(s).</text>
    <text x="56" y="754" fill="#cbd5e1">    - main is missing 1 ticket commit(s).</text>
    <text x="56" y="788" fill="#cbd5e1">    - Declared dependency XYZ-456 is present in staging but missing from main.</text>
    <text x="56" y="822" fill="#f8fafc">  manual steps:</text>
    <text x="56" y="856" fill="#fbbf24">    - Review DB migration ordering, rollback steps, and deployment timing before promotion.</text>
  </g>

  <rect x="42" y="258" width="290" height="44" rx="10" fill="rgba(127,29,29,0.22)" stroke="#f87171" stroke-width="3"/>
  <rect x="42" y="402" width="860" height="170" rx="14" fill="none" stroke="#fbbf24" stroke-width="3"/>
  <rect x="42" y="634" width="1100" height="230" rx="14" fill="none" stroke="#38bdf8" stroke-width="3"/>

  <path d="M 338 280 C 520 240, 680 210, 980 188" fill="none" stroke="#f87171" stroke-width="3"/>
  <rect x="990" y="128" width="362" height="108" rx="16" fill="#4c0519" stroke="#f87171" stroke-width="2"/>
  <text x="1016" y="168" fill="#ffe4e6" font-family="ui-sans-serif, system-ui, sans-serif" font-size="28" font-weight="700">Single release verdict</text>
  <text x="1016" y="202" fill="#fecdd3" font-family="ui-sans-serif, system-ui, sans-serif" font-size="22">The user gets `safe`, `warning`, or `blocked` with no extra interpretation work.</text>

  <path d="M 910 486 C 1040 486, 1100 486, 1180 486" fill="none" stroke="#fbbf24" stroke-width="3"/>
  <rect x="1030" y="410" width="330" height="138" rx="16" fill="#422006" stroke="#fbbf24" stroke-width="2"/>
  <text x="1054" y="450" fill="#fef3c7" font-family="ui-sans-serif, system-ui, sans-serif" font-size="28" font-weight="700">Why it is blocked</text>
  <text x="1054" y="486" fill="#fde68a" font-family="ui-sans-serif, system-ui, sans-serif" font-size="22">The explanation is explicit: missing commit, missing dependency, and manual review.</text>

  <path d="M 1148 760 C 1220 750, 1260 744, 1300 734" fill="none" stroke="#38bdf8" stroke-width="3"/>
  <rect x="1036" y="666" width="332" height="144" rx="16" fill="#082f49" stroke="#38bdf8" stroke-width="2"/>
  <text x="1060" y="706" fill="#e0f2fe" font-family="ui-sans-serif, system-ui, sans-serif" font-size="28" font-weight="700">Actionable next move</text>
  <text x="1060" y="742" fill="#bae6fd" font-family="ui-sans-serif, system-ui, sans-serif" font-size="22">The repo-level section shows exactly what must be reviewed before promotion.</text>
</svg>
